Coordinates
version=1
nRows=18
nColumns=38
inDegrees=yes

Units are S.I. units (second, meters, Newtons, ...)
Angles are in degrees.

endheader
time	pelvis_tilt	pelvis_list	pelvis_rotation	pelvis_tx	pelvis_ty	pelvis_tz	hip_flexion_r	hip_adduction_r	hip_rotation_r	knee_angle_r	ankle_angle_r	subtalar_angle_r	mtp_angle_r	hip_flexion_l	hip_adduction_l	hip_rotation_l	knee_angle_l	ankle_angle_l	subtalar_angle_l	mtp_angle_l	lumbar_extension	lumbar_bending	lumbar_rotation	arm_flex_r	arm_add_r	arm_rot_r	elbow_flex_r	pro_sup_r	wrist_flex_r	wrist_dev_r	arm_flex_l	arm_add_l	arm_rot_l	elbow_flex_l	pro_sup_l	wrist_flex_l	wrist_dev_l
      4.14000000	      1.43970418	     -1.64806097	      3.49713192	      0.37447711	      0.92005610	     -0.20753045	     -4.18073266	      7.46844644	     -5.66625019	    -13.75588646	     10.84711250	      0.86184179	      0.77248243	     26.25835928	      1.19270845	      4.56359608	    -41.74822174	     -0.51703473	     -8.58716891	      9.76933435	     -7.65990705	      3.74309171	      2.39816109	     -0.81181874	    -21.86538406	     10.50959398	     35.90113640	     86.51662706	      0.00000000	      0.00000000	     -5.85860183	    -13.92750379	     17.48888894	     19.74221753	     85.94366927	      0.00000000	      0.00000000
      4.15000000	      1.61950667	     -1.63279372	      3.18674540	      0.38641436	      0.91868114	     -0.20713500	     -5.45213022	      7.47031451	     -5.66250680	    -13.32892706	     11.38772771	      1.50193571	      0.80659358	     26.30428217	      1.11598903	      4.39476879	    -38.24300375	     -0.46010147	     -9.43162340	      9.08402953	     -7.98538417	      3.70121239	      2.77376537	     -0.27740447	    -22.18577619	     10.62056053	     36.59756570	     86.51662706	      0.00000000	      0.00000000	     -5.88833633	    -13.82732748	     17.38615460	     19.50167782	     85.94366927	      0.00000000	      0.00000000
      4.16000000	      1.79085011	     -1.64676551	      2.88695509	      0.39844784	      0.91715976	     -0.20679859	     -6.68480993	      7.49471851	     -5.61186729	    -12.96416032	     11.89649977	      2.03782807	      0.88343299	     26.28258043	      1.00711075	      4.27472079	    -34.66804811	     -0.33423602	    -10.07405286	      8.51236759	     -8.28727095	      3.69236653	      3.11911222	      0.24993839	    -22.49836935	     10.75823446	     37.23917892	     86.51662706	      0.00000000	      0.00000000	     -5.89307615	    -13.70972906	     17.38352347	     19.18266241	     85.94366927	      0.00000000	      0.00000000
      4.17000000	      1.93930821	     -1.68818988	      2.59592022	      0.41058731	      0.91551229	     -0.20652217	     -7.86126588	      7.54152749	     -5.51793971	    -12.66844446	     12.37128019	      2.46442197	      1.00201810	     26.21851238	      0.86278750	      4.18560822	    -31.07925616	     -0.11583546	    -10.42302977	      8.05546142	     -8.54702214	      3.71428836	      3.43684624	      0.75998084	    -22.79998238	     10.91308535	     37.82687439	     86.51662706	      0.00000000	      0.00000000	     -5.87488583	    -13.57785161	     17.48453613	     18.78542519	     85.94366927	      0.00000000	      0.00000000
      4.18000000	      2.05050465	     -1.75651603	      2.31242547	      0.42284617	      0.91373717	     -0.20630047	     -8.96678473	      7.60976554	     -5.39251288	    -12.44839098	     12.81120849	      2.79011603	      1.15989600	     26.13748939	      0.68217901	      4.10067447	    -27.54033604	      0.19683137	    -10.40015910	      7.70821732	     -8.74731007	      3.76606871	      3.72827611	      1.24256139	    -23.08816926	     11.07392785	     38.36236775	     86.51662706	      0.00000000	      0.00000000	     -5.83578105	    -13.43363005	     17.69140371	     18.31130406	     85.94366927	      0.00000000	      0.00000000
      4.19000000	      2.11367915	     -1.85141573	      2.03660766	      0.43522951	      0.91182205	     -0.20613227	     -9.98955016	      7.69581166	     -5.25179877	    -12.31150055	     13.21511438	      3.03553762	      1.35350595	     26.06499863	      0.46890377	      3.98654012	    -24.12255507	      0.58676368	     -9.95373636	      7.46024858	     -8.87488454	      3.84765208	      3.99361585	      1.68828130	    -23.36141535	     11.22854469	     38.84825849	     86.51662706	      0.00000000	      0.00000000	     -5.77735983	    -13.27786398	     18.00423616	     17.76348826	     85.94366927	      0.00000000	      0.00000000
      4.20000000	      2.12426159	     -1.97113619	      1.77034587	      0.44773156	      0.90976627	     -0.20603454	    -10.92036786	      7.79273848	     -5.11271220	    -12.26698651	     13.57998084	      3.23068221	      1.57891818	     26.02508399	      0.23277954	      3.80878343	    -20.90407648	      1.02598265	     -9.07026855	      7.29739215	     -8.92351594	      3.95816597	      4.23262838	      2.08883238	    -23.61882938	     11.36449292	     39.28801951	     86.51662706	      0.00000000	      0.00000000	     -5.70027253	    -13.11085420	     18.42019698	     17.14781951	     85.94366927	      0.00000000	      0.00000000
      4.21000000	      2.08433799	     -2.11107012	      1.51670596	      0.46035002	      0.90759803	     -0.20603947	    -11.75305435	      7.89035247	     -4.98984884	    -12.32568614	     13.89992197	      3.41098816	      1.83301090	     26.03733518	     -0.00989931	      3.54041583	    -17.96852400	      1.48477826	     -7.78164796	      7.20356685	     -8.89596682	      4.09351520	      4.44561630	      2.43681781	    -23.85945723	     11.47003059	     39.68582784	     86.51662706	      0.00000000	      0.00000000	     -5.60404340	    -12.93329384	     18.93281494	     16.47336529	     85.94366927	      0.00000000	      0.00000000
      4.22000000	      2.00176871	     -2.26269164	      1.27818728	      0.47309054	      0.90537025	     -0.20617804	    -12.48595827	      7.97531547	     -4.89346202	    -12.49883195	     14.16596337	      3.61294065	      2.11503485	     26.11389531	     -0.23841206	      3.17139386	    -15.40190522	      1.93889447	     -6.16627321	      7.16256885	     -8.80391148	      4.24413698	      4.63455192	      2.72513996	    -24.08152049	     11.53505067	     40.04616992	     86.51662706	      0.00000000	      0.00000000	     -5.48780180	    -12.74701412	     19.53169208	     15.75254759	     85.94366927	      0.00000000	      0.00000000
      4.23000000	      1.88905316	     -2.41313671	      1.05433071	      0.48595318	      0.90314339	     -0.20645653	    -13.12399571	      8.03123544	     -4.82856654	    -12.79585459	     14.36673844	      3.86968967	      2.42843501	     26.25791353	     -0.43134980	      2.71583663	    -13.28696408	      2.37190232	     -4.34327768	      7.15940522	     -8.66522063	      4.39405235	      4.80385466	      2.94622459	    -24.28191054	     11.55188405	     40.37320211	     86.51662706	      0.00000000	      0.00000000	     -5.35198754	    -12.55521891	     20.20274736	     15.00072663	     85.94366927	      0.00000000	      0.00000000
      4.24000000	      1.76182557	     -2.54605089	      0.84012623	      0.49893406	      0.90098124	     -0.20683856	    -13.67955757	      8.03910275	     -4.79514027	    -13.22186500	     14.48992875	      4.20704849	      2.78270479	     26.46322917	     -0.57027420	      2.21340785	    -11.69457242	      2.77176422	     -2.46011106	      7.18091383	     -8.49894725	      4.52225433	      4.96016834	      3.09148197	    -24.45614754	     11.51584338	     40.66990854	     86.51662706	      0.00000000	      0.00000000	     -5.20041397	    -12.36220712	     20.92897492	     14.23528155	     85.94366927	      0.00000000	      0.00000000
      4.25000000	      1.63615851	     -2.64386856	      0.62673994	      0.51204778	      0.89895674	     -0.20725751	    -14.17052141	      7.97885428	     -4.78921355	    -13.77570452	     14.52391277	      4.64018550	      3.19492143	     26.71409031	     -0.64167878	      1.72297841	    -10.67269480	      3.12288748	     -0.67491850	      7.21567957	     -8.31933098	      4.60651993	      5.11078381	      3.15142994	    -24.59880866	     11.42542390	     40.93715167	     86.51662706	      0.00000000	      0.00000000	     -5.04176593	    -12.17305032	     21.69157124	     13.47434718	     85.94366927	      0.00000000	      0.00000000
      4.26000000	      1.52456184	     -2.69101716	      0.40491381	      0.52534365	      0.89713151	     -0.20766750	    -14.61512693	      7.83256434	     -4.80457734	    -14.44934060	     14.45884627	      5.17131395	      3.69051245	     26.98498505	     -0.63672804	      1.30967862	    -10.23467439	      3.39704834	      0.86364799	      7.25352738	     -8.13088408	      4.62814799	      5.26099181	      3.11678889	    -24.70426596	     11.28214751	     41.17276558	     86.51662706	      0.00000000	      0.00000000	     -4.88976908	    -11.99358496	     22.47121207	     12.73541682	     85.94366927	      0.00000000	      0.00000000
      4.27000000	      1.43157506	     -2.67695908	      0.16983185	      0.53890712	      0.89551789	     -0.20807995	    -15.02580902	      7.58860908	     -4.83479395	    -15.22925804	     14.28640714	      5.78868440	      4.30279090	     27.24270025	     -0.54938104	      1.02930837	    -10.35007721	      3.54761246	      2.03564130	      7.28503577	     -7.92666227	      4.57535209	      5.41113562	      2.98054101	    -24.76742944	     11.09010014	     41.37089327	     86.51662706	      0.00000000	      0.00000000	     -4.76159469	    -11.83047153	     23.24921565	     12.03402786	     85.94366927	      0.00000000	      0.00000000
      4.28000000	      1.35073535	     -2.59740825	     -0.07483143	      0.55283743	      0.89406918	     -0.20852554	    -15.40514396	      7.24527254	     -4.87503444	    -16.10013638	     13.99772987	      6.46712584	      5.07090263	     27.45294856	     -0.37399116	      0.91530999	    -10.94245082	      3.51098124	      2.76429779	      7.30149924	     -7.69076779	      4.44376243	      5.55432654	      2.74046623	    -24.78413030	     10.85525148	     41.52176674	     86.51662706	      0.00000000	      0.00000000	     -4.67459365	    -11.69078479	     24.00836717	     11.38273069	     85.94366927	      0.00000000	      0.00000000
      4.29000000	      1.26583213	     -2.45319813	     -0.31614147	      0.56718465	      0.89269451	     -0.20900577	    -15.74577054	      6.81160349	     -4.92314860	    -17.05006414	     13.57965751	      7.17022084	      6.03605097	     27.59185354	     -0.10348122	      0.97252834	    -11.89763510	      3.21711733	      3.02287789	      7.29557161	     -7.40433974	      4.23398991	      5.67576463	      2.40127266	    -24.75096701	     10.58467421	     41.61207349	     86.51662706	      0.00000000	      0.00000000	     -4.64223684	    -11.58103509	     24.73332532	     10.79048514	     85.94366927	      0.00000000	      0.00000000
      4.30000000	      1.15874019	     -2.24777560	     -0.53478093	      0.58190292	      0.89128528	     -0.20950767	    -16.03341092	      6.30348867	     -4.97960299	    -18.07546926	     13.01018013	      7.85394586	      7.23616982	     27.65904040	      0.27052258	      1.17944961	    -13.08317737	      2.60783116	      2.83284381	      7.26250217	     -7.05275680	      3.94759814	      5.75424739	      1.97538620	    -24.66479795	     10.28580856	     41.62597963	     86.51662706	      0.00000000	      0.00000000	     -4.67059911	    -11.50608572	     25.41067202	     10.26255079	     85.94366927	      0.00000000	      0.00000000
      4.31000000	      1.02073782	     -1.98338252	     -0.70935463	      0.59689919	      0.88977079	     -0.21003269	    -16.25016953	      5.73617841	     -5.04660248	    -19.18383743	     12.25453946	      8.47129676	      8.69955439	     27.68423362	      0.75446473	      1.49754121	    -14.37550984	      1.65820360	      2.25464655	      7.20151178	     -6.63122954	      3.58350747	      5.76591218	      1.48183496	    -24.52229816	      9.96591440	     41.54678931	     86.51662706	      0.00000000	      0.00000000	     -4.75654332	    -11.46847980	     26.02872633	      9.80088181	     85.94366927	      0.00000000	      0.00000000
